<svg width="16" height="16" viewBox="0 0 16 16" fill="none" xmlns="http://www.w3.org/2000/svg">
<path d="M6.66654 9.06686L10.5999 5.13353C10.7221 5.01131 10.8776 4.9502 11.0665 4.9502C11.2554 4.9502 11.411 5.01131 11.5332 5.13353C11.6554 5.25575 11.7165 5.41131 11.7165 5.60019C11.7165 5.78908 11.6554 5.94464 11.5332 6.06686L7.1332 10.4669C6.99987 10.6002 6.84431 10.6669 6.66654 10.6669C6.48876 10.6669 6.3332 10.6002 6.19987 10.4669L4.46654 8.73353C4.34431 8.61131 4.2832 8.45575 4.2832 8.26686C4.2832 8.07797 4.34431 7.92242 4.46654 7.8002C4.58876 7.67797 4.74431 7.61686 4.9332 7.61686C5.12209 7.61686 5.27765 7.67797 5.39987 7.8002L6.66654 9.06686Z" fill="black"/>
</svg>
