<svg width="16" height="16" viewBox="0 0 16 16" fill="none" xmlns="http://www.w3.org/2000/svg">
<path d="M4 1.33301L2 3.99967V13.333C2 13.6866 2.14048 14.0258 2.39052 14.2758C2.64057 14.5259 2.97971 14.6663 3.33333 14.6663H12.6667C13.0203 14.6663 13.3594 14.5259 13.6095 14.2758C13.8595 14.0258 14 13.6866 14 13.333V3.99967L12 1.33301H4Z" stroke="#C41E22" stroke-linecap="round" stroke-linejoin="round"/>
<path d="M2 4H14" stroke="#C41E22" stroke-linecap="round" stroke-linejoin="round"/>
<path d="M10.6654 6.66699C10.6654 7.37424 10.3844 8.05251 9.88432 8.55261C9.38422 9.05271 8.70594 9.33366 7.9987 9.33366C7.29145 9.33366 6.61318 9.05271 6.11308 8.55261C5.61298 8.05251 5.33203 7.37424 5.33203 6.66699" stroke="#C41E22" stroke-linecap="round" stroke-linejoin="round"/>
</svg>
