<svg width="16" height="16" viewBox="0 0 16 16" fill="none" xmlns="http://www.w3.org/2000/svg">
<path d="M4 1.3335L2 4.00016V13.3335C2 13.6871 2.14048 14.0263 2.39052 14.2763C2.64057 14.5264 2.97971 14.6668 3.33333 14.6668H12.6667C13.0203 14.6668 13.3594 14.5264 13.6095 14.2763C13.8595 14.0263 14 13.6871 14 13.3335V4.00016L12 1.3335H4Z" stroke="#1A1A1A" stroke-linecap="round" stroke-linejoin="round"/>
<path d="M2 4H14" stroke="#1A1A1A" stroke-linecap="round" stroke-linejoin="round"/>
<path d="M10.6654 6.66699C10.6654 7.37424 10.3844 8.05251 9.88432 8.55261C9.38422 9.05271 8.70594 9.33366 7.9987 9.33366C7.29145 9.33366 6.61318 9.05271 6.11308 8.55261C5.61298 8.05251 5.33203 7.37424 5.33203 6.66699" stroke="#1A1A1A" stroke-linecap="round" stroke-linejoin="round"/>
</svg>
