<svg width="16" height="16" viewBox="0 0 16 16" fill="none" xmlns="http://www.w3.org/2000/svg">
<path d="M14.974 4.00008C14.4607 4.23341 13.9073 4.38675 13.334 4.46008C13.9207 4.10675 14.374 3.54675 14.5873 2.87341C14.034 3.20675 13.4207 3.44008 12.774 3.57341C12.2473 3.00008 11.5073 2.66675 10.6673 2.66675C9.10068 2.66675 7.82068 3.94675 7.82068 5.52675C7.82068 5.75341 7.84734 5.97341 7.89401 6.18008C5.52068 6.06008 3.40734 4.92008 2.00068 3.19341C1.75401 3.61341 1.61401 4.10675 1.61401 4.62675C1.61401 5.62008 2.11401 6.50008 2.88734 7.00008C2.41401 7.00008 1.97401 6.86675 1.58734 6.66675V6.68675C1.58734 8.07341 2.57401 9.23341 3.88068 9.49341C3.46116 9.60822 3.02074 9.62419 2.59401 9.54008C2.77508 10.1084 3.1297 10.6057 3.60802 10.962C4.08634 11.3184 4.66431 11.5159 5.26068 11.5267C4.24976 12.327 2.99667 12.7596 1.70734 12.7534C1.48068 12.7534 1.25401 12.7401 1.02734 12.7134C2.29401 13.5267 3.80068 14.0001 5.41401 14.0001C10.6673 14.0001 13.554 9.64008 13.554 5.86008C13.554 5.73341 13.554 5.61341 13.5473 5.48675C14.1073 5.08675 14.5873 4.58008 14.974 4.00008Z" fill="white"/>
</svg>
