<svg width="54" height="54" viewBox="0 0 54 54" fill="none" xmlns="http://www.w3.org/2000/svg">
<path opacity="0.2" d="M47.25 11.8125V43.875L40.5 40.5L33.75 43.875L27 40.5L20.25 43.875L13.5 40.5L6.75 43.875V11.8125C6.75 11.3649 6.92779 10.9357 7.24426 10.6193C7.56073 10.3028 7.98995 10.125 8.4375 10.125H45.5625C46.0101 10.125 46.4393 10.3028 46.7557 10.6193C47.0722 10.9357 47.25 11.3649 47.25 11.8125Z" fill="#0277BD"/>
<path d="M15.1875 21.9375C15.1875 21.4899 15.3653 21.0607 15.6818 20.7443C15.9982 20.4278 16.4274 20.25 16.875 20.25H37.125C37.5726 20.25 38.0018 20.4278 38.3182 20.7443C38.6347 21.0607 38.8125 21.4899 38.8125 21.9375C38.8125 22.3851 38.6347 22.8143 38.3182 23.1307C38.0018 23.4472 37.5726 23.625 37.125 23.625H16.875C16.4274 23.625 15.9982 23.4472 15.6818 23.1307C15.3653 22.8143 15.1875 22.3851 15.1875 21.9375ZM16.875 30.375H37.125C37.5726 30.375 38.0018 30.1972 38.3182 29.8807C38.6347 29.5643 38.8125 29.1351 38.8125 28.6875C38.8125 28.2399 38.6347 27.8107 38.3182 27.4943C38.0018 27.1778 37.5726 27 37.125 27H16.875C16.4274 27 15.9982 27.1778 15.6818 27.4943C15.3653 27.8107 15.1875 28.2399 15.1875 28.6875C15.1875 29.1351 15.3653 29.5643 15.6818 29.8807C15.9982 30.1972 16.4274 30.375 16.875 30.375ZM48.9375 11.8125V43.875C48.9373 44.1626 48.8637 44.4454 48.7235 44.6966C48.5833 44.9477 48.3813 45.1588 48.1366 45.31C47.8918 45.4611 47.6125 45.5471 47.3252 45.5599C47.0379 45.5727 46.7521 45.5119 46.4948 45.3832L40.5 42.3858L34.5052 45.3832C34.2707 45.5005 34.0122 45.5616 33.75 45.5616C33.4878 45.5616 33.2293 45.5005 32.9948 45.3832L27 42.3858L21.0052 45.3832C20.7707 45.5005 20.5122 45.5616 20.25 45.5616C19.9878 45.5616 19.7293 45.5005 19.4948 45.3832L13.5 42.3858L7.50516 45.3832C7.24795 45.5119 6.96211 45.5727 6.67478 45.5599C6.38745 45.5471 6.10817 45.4611 5.86344 45.31C5.61872 45.1588 5.41667 44.9477 5.2765 44.6966C5.13632 44.4454 5.06265 44.1626 5.0625 43.875V11.8125C5.0625 10.9174 5.41808 10.0589 6.05101 9.42601C6.68395 8.79308 7.54239 8.4375 8.4375 8.4375H45.5625C46.4576 8.4375 47.316 8.79308 47.949 9.42601C48.5819 10.0589 48.9375 10.9174 48.9375 11.8125ZM45.5625 11.8125H8.4375V41.1455L12.7448 38.9897C12.9793 38.8724 13.2378 38.8113 13.5 38.8113C13.7622 38.8113 14.0207 38.8724 14.2552 38.9897L20.25 41.9892L26.2448 38.9897C26.4793 38.8724 26.7378 38.8113 27 38.8113C27.2622 38.8113 27.5207 38.8724 27.7552 38.9897L33.75 41.9892L39.7448 38.9897C39.9793 38.8724 40.2378 38.8113 40.5 38.8113C40.7622 38.8113 41.0207 38.8724 41.2552 38.9897L45.5625 41.1455V11.8125Z" fill="#0277BD"/>
</svg>
