<svg width="16" height="16" viewBox="0 0 16 16" fill="none" xmlns="http://www.w3.org/2000/svg">
<g clip-path="url(#clip0_503_1132)">
<path d="M13.3333 12.0001C13.5033 12.0003 13.6667 12.0653 13.7902 12.182C13.9138 12.2986 13.9882 12.4581 13.9981 12.6277C14.0081 12.7973 13.9529 12.9643 13.8438 13.0946C13.7348 13.2249 13.5801 13.3087 13.4113 13.3287L13.3333 13.3334H2.66667C2.49675 13.3332 2.33331 13.2682 2.20975 13.1515C2.0862 13.0349 2.01184 12.8754 2.00189 12.7058C1.99193 12.5362 2.04712 12.3692 2.15618 12.2389C2.26524 12.1086 2.41994 12.0248 2.58867 12.0047L2.66667 12.0001H13.3333ZM13.3333 7.33342C13.5101 7.33342 13.6797 7.40365 13.8047 7.52868C13.9298 7.6537 14 7.82327 14 8.00008C14 8.17689 13.9298 8.34646 13.8047 8.47149C13.6797 8.59651 13.5101 8.66675 13.3333 8.66675H2.66667C2.48986 8.66675 2.32029 8.59651 2.19526 8.47149C2.07024 8.34646 2 8.17689 2 8.00008C2 7.82327 2.07024 7.6537 2.19526 7.52868C2.32029 7.40365 2.48986 7.33342 2.66667 7.33342H13.3333ZM13.3333 2.66675C13.5101 2.66675 13.6797 2.73699 13.8047 2.86201C13.9298 2.98703 14 3.1566 14 3.33341C14 3.51023 13.9298 3.67979 13.8047 3.80482C13.6797 3.92984 13.5101 4.00008 13.3333 4.00008H2.66667C2.48986 4.00008 2.32029 3.92984 2.19526 3.80482C2.07024 3.67979 2 3.51023 2 3.33341C2 3.1566 2.07024 2.98703 2.19526 2.86201C2.32029 2.73699 2.48986 2.66675 2.66667 2.66675H13.3333Z" fill="white"/>
</g>
<defs>
<clipPath id="clip0_503_1132">
<rect width="16" height="16" fill="white"/>
</clipPath>
</defs>
</svg>
