<svg width="40" height="40" viewBox="0 0 40 40" fill="none" xmlns="http://www.w3.org/2000/svg">
<path d="M33.6932 31.4324C32.8876 29.0348 29.6768 27.534 27.3876 26.528C26.4908 26.1352 24.008 25.4688 23.7096 24.3396C23.6028 23.9328 23.6172 23.5492 23.7048 23.1816C23.5668 23.208 23.4268 23.2236 23.282 23.2236H21.7904C20.5996 23.2236 19.632 22.2548 19.632 21.0648C19.632 19.8756 20.6 18.9088 21.7904 18.9088H23.282C23.7748 18.9088 24.242 19.0756 24.6188 19.3732C25.1712 19.2996 25.704 19.1816 26.2008 19.0268C26.8532 17.66 27.362 16.0256 27.476 14.6188C27.9628 8.5996 24.2728 5.078 18.982 5.6868C15.1352 6.1296 12.8372 8.998 12.5888 12.6908C12.3376 16.4548 13.7332 19.2348 15.2156 21.274C15.8648 22.1656 16.5468 22.7388 16.442 23.8132C16.3204 25.0836 14.962 25.4376 13.9904 25.828C12.8392 26.2904 11.5992 26.992 11.0136 27.3164C8.99641 28.4304 6.78241 29.772 6.28481 31.6072C5.18281 35.6744 8.90441 36.9064 11.9768 37.4752C14.6136 37.9616 17.5868 38 20.0324 38C24.456 38 32.4104 37.8228 33.6932 34.4976C34.058 33.554 33.9016 32.0504 33.6932 31.4324Z" fill="#4F5FEC"/>
<path d="M24.2257 20.4572C24.0233 20.1488 23.6773 19.944 23.2825 19.944H21.7909C21.1685 19.944 20.6665 20.4468 20.6665 21.066C20.6665 21.6876 21.1685 22.1912 21.7909 22.1912H23.2825C23.7181 22.1912 24.0877 21.9428 24.2741 21.5836C26.3537 21.42 28.1625 20.7848 29.4321 19.8468C29.7237 20.0348 30.0685 20.1448 30.4405 20.1448H30.5341C31.5709 20.1448 32.4093 19.3056 32.4093 18.2676V14.5204C32.4093 13.774 31.9717 13.13 31.3405 12.8308C31.0653 6.8136 26.0841 2 19.9993 2C13.9145 2 8.93247 6.8136 8.65847 12.8308C8.02607 13.1304 7.58887 13.774 7.58887 14.5204V18.2676C7.58887 19.3056 8.42807 20.1448 9.46247 20.1448H9.55727C10.5925 20.1448 11.4321 19.3056 11.4321 18.2676V14.5204C11.4321 13.7848 11.0069 13.1504 10.3889 12.8436C10.6565 7.7736 14.8637 3.7324 19.9993 3.7324C25.1329 3.7324 29.3421 7.7736 29.6085 12.8436C28.9913 13.1508 28.5665 13.7848 28.5665 14.5204V18.2676C28.5665 18.5164 28.6149 18.748 28.7001 18.9644C27.6073 19.7464 26.0165 20.3036 24.2257 20.4572Z" fill="#4F5FEC"/>
</svg>
