<svg width="32" height="32" viewBox="0 0 32 32" fill="none" xmlns="http://www.w3.org/2000/svg">
<rect width="32" height="32" rx="16" fill="#1A2954"/>
<path d="M14.7107 21.3333C14.1684 21.3328 13.6485 21.1171 13.265 20.7337C12.8816 20.3502 12.6659 19.8303 12.6654 19.288C12.6654 19.1112 12.5951 18.9416 12.4701 18.8166C12.3451 18.6916 12.1755 18.6213 11.9987 18.6213C11.8219 18.6213 11.6523 18.6916 11.5273 18.8166C11.4023 18.9416 11.332 19.1112 11.332 19.288V19.3333C11.332 19.346 11.332 19.3573 11.332 19.37C11.3543 20.2515 11.7199 21.0895 12.3511 21.7053C12.9822 22.3211 13.8289 22.6661 14.7107 22.6667H15.332V23.3333C15.332 23.5101 15.4023 23.6797 15.5273 23.8047C15.6523 23.9298 15.8219 24 15.9987 24C16.1755 24 16.3451 23.9298 16.4701 23.8047C16.5951 23.6797 16.6654 23.5101 16.6654 23.3333V22.6667H17.2867C18.0885 22.6658 18.8638 22.3798 19.4742 21.8599C20.0845 21.3399 20.49 20.6199 20.6183 19.8284C20.7465 19.0369 20.5891 18.2256 20.1742 17.5396C19.7592 16.8535 19.1139 16.3373 18.3534 16.0833L16.6654 15.52V10.6667H17.2867C17.829 10.6672 18.3489 10.8829 18.7324 11.2663C19.1158 11.6498 19.3315 12.1697 19.332 12.712C19.332 12.8888 19.4023 13.0584 19.5273 13.1834C19.6523 13.3084 19.8219 13.3787 19.9987 13.3787C20.1755 13.3787 20.3451 13.3084 20.4701 13.1834C20.5951 13.0584 20.6654 12.8888 20.6654 12.712V12.6667C20.6654 12.654 20.6654 12.6427 20.6654 12.63C20.6431 11.7485 20.2775 10.9105 19.6463 10.2947C19.0152 9.67889 18.1685 9.33392 17.2867 9.33333H16.6654V8.66667C16.6654 8.48986 16.5951 8.32029 16.4701 8.19526C16.3451 8.07024 16.1755 8 15.9987 8C15.8219 8 15.6523 8.07024 15.5273 8.19526C15.4023 8.32029 15.332 8.48986 15.332 8.66667V9.33333H14.7107C13.9089 9.33419 13.1336 9.62016 12.5232 10.1401C11.9129 10.6601 11.5074 11.3801 11.3791 12.1716C11.2509 12.9631 11.4083 13.7744 11.8232 14.4604C12.2381 15.1465 12.8835 15.6627 13.644 15.9167L15.332 16.48V21.3333H14.7107ZM16.6654 16.9247L17.932 17.3473C18.3929 17.5007 18.7841 17.8131 19.0357 18.2285C19.2873 18.644 19.3828 19.1354 19.3052 19.6149C19.2275 20.0943 18.9818 20.5305 18.612 20.8454C18.2422 21.1602 17.7724 21.3332 17.2867 21.3333H16.6654V16.9247ZM14.0654 14.6527C13.6045 14.4993 13.2133 14.1869 12.9617 13.7715C12.7101 13.356 12.6146 12.8646 12.6922 12.3851C12.7699 11.9057 13.0156 11.4695 13.3854 11.1546C13.7552 10.8398 14.225 10.6668 14.7107 10.6667H15.332V15.0753L14.0654 14.6527Z" fill="white"/>
</svg>
