<svg width="16" height="16" viewBox="0 0 16 16" fill="none" xmlns="http://www.w3.org/2000/svg">
<path d="M4.6276 3.33327C4.62743 3.68689 4.48678 4.02596 4.23661 4.27588C3.98644 4.52581 3.64723 4.66611 3.2936 4.66593C2.93998 4.66576 2.60091 4.52511 2.35099 4.27494C2.10107 4.02477 1.96076 3.68556 1.96094 3.33193C1.96111 2.97831 2.10176 2.63924 2.35193 2.38932C2.60211 2.1394 2.94132 1.99909 3.29494 1.99927C3.64856 1.99944 3.98763 2.14009 4.23755 2.39026C4.48747 2.64044 4.62778 2.97965 4.6276 3.33327ZM4.6676 5.65327H2.00094V13.9999H4.6676V5.65327ZM8.88094 5.65327H6.2276V13.9999H8.85427V9.61993C8.85427 7.17993 12.0343 6.95327 12.0343 9.61993V13.9999H14.6676V8.71327C14.6676 4.59993 9.96094 4.75327 8.85427 6.77327L8.88094 5.65327Z" fill="white"/>
</svg>
