<svg width="54" height="54" viewBox="0 0 54 54" fill="none" xmlns="http://www.w3.org/2000/svg">
<path d="M20.333 19.8666V34.1333C20.333 35.1555 20.7997 35.9333 21.733 36.4666C22.6663 36.9999 23.5775 36.9555 24.4663 36.3332L35.533 29.2666C36.3774 28.7333 36.7997 27.9777 36.7997 26.9999C36.7997 26.0221 36.3774 25.2666 35.533 24.7332L24.4663 17.6666C23.5775 17.0444 22.6663 16.9999 21.733 17.5333C20.7997 18.0666 20.333 18.8444 20.333 19.8666ZM26.9997 53.6666C23.3108 53.6666 19.8441 52.9661 16.5997 51.5652C13.3552 50.1661 10.533 48.2666 8.13301 45.8666C5.73301 43.4666 3.83345 40.6444 2.43434 37.3999C1.03345 34.1555 0.333008 30.6888 0.333008 26.9999C0.333008 23.311 1.03345 19.8444 2.43434 16.5999C3.83345 13.3555 5.73301 10.5333 8.13301 8.13325C10.533 5.73325 13.3552 3.83281 16.5997 2.43192C19.8441 1.03281 23.3108 0.333252 26.9997 0.333252C30.6886 0.333252 34.1552 1.03281 37.3997 2.43192C40.6441 3.83281 43.4663 5.73325 45.8663 8.13325C48.2663 10.5333 50.1659 13.3555 51.565 16.5999C52.9659 19.8444 53.6663 23.311 53.6663 26.9999C53.6663 30.6888 52.9659 34.1555 51.565 37.3999C50.1659 40.6444 48.2663 43.4666 45.8663 45.8666C43.4663 48.2666 40.6441 50.1661 37.3997 51.5652C34.1552 52.9661 30.6886 53.6666 26.9997 53.6666Z" fill="white"/>
</svg>
