<svg width="22" height="21" viewBox="0 0 22 21" fill="none" xmlns="http://www.w3.org/2000/svg">
<path opacity="0.2" d="M16.2599 12.8468C16.1571 12.9371 16.0807 13.0535 16.0388 13.1837C15.9968 13.314 15.991 13.4531 16.0218 13.5865L17.2893 19.0746C17.3228 19.2179 17.3134 19.3679 17.2622 19.506C17.211 19.644 17.1204 19.7639 17.0015 19.8508C16.8827 19.9376 16.7409 19.9876 16.5939 19.9944C16.4468 20.0013 16.301 19.9647 16.1746 19.8893L11.384 16.983C11.2676 16.9122 11.134 16.8748 10.9977 16.8748C10.8615 16.8748 10.7279 16.9122 10.6115 16.983L5.82085 19.8893C5.69445 19.9647 5.54864 20.0013 5.4016 19.9944C5.25456 19.9876 5.11278 19.9376 4.99393 19.8508C4.87509 19.7639 4.78443 19.644 4.73326 19.506C4.68209 19.3679 4.67266 19.2179 4.70616 19.0746L5.97366 13.5865C6.00447 13.4531 5.9986 13.314 5.95667 13.1837C5.91475 13.0535 5.83833 12.9371 5.73554 12.8468L1.50647 9.1577C1.39341 9.06161 1.31139 8.93413 1.2708 8.79141C1.23021 8.64869 1.23286 8.49713 1.27843 8.35592C1.32399 8.21471 1.41042 8.09018 1.52678 7.9981C1.64314 7.90602 1.78419 7.85053 1.9321 7.83864L7.50647 7.35677C7.64247 7.34465 7.77259 7.29564 7.88278 7.21502C7.99298 7.1344 8.07907 7.02522 8.13179 6.89927L10.3096 1.70927C10.3678 1.57508 10.4639 1.46084 10.5862 1.38058C10.7084 1.30033 10.8515 1.25757 10.9977 1.25757C11.144 1.25757 11.287 1.30033 11.4093 1.38058C11.5316 1.46084 11.6277 1.57508 11.6858 1.70927L13.8637 6.89927C13.9164 7.02522 14.0025 7.1344 14.1127 7.21502C14.2229 7.29564 14.353 7.34465 14.489 7.35677L20.0633 7.83864C20.2113 7.85053 20.3523 7.90602 20.4687 7.9981C20.585 8.09018 20.6715 8.21471 20.717 8.35592C20.7626 8.49713 20.7652 8.64869 20.7246 8.79141C20.6841 8.93413 20.602 9.06161 20.489 9.1577L16.2599 12.8468Z" fill="#FF9800"/>
<path d="M21.4258 8.121C21.335 7.84104 21.1638 7.594 20.9336 7.41063C20.7034 7.22726 20.4243 7.11566 20.1311 7.08975L14.5633 6.60974L12.3808 1.41974C12.2672 1.14742 12.0755 0.914795 11.8299 0.751174C11.5844 0.587552 11.2959 0.500244 11.0008 0.500244C10.7057 0.500244 10.4172 0.587552 10.1717 0.751174C9.9261 0.914795 9.73443 1.14742 9.6208 1.41974L7.44486 6.60974L1.87049 7.09256C1.57615 7.11729 1.29566 7.22838 1.0642 7.41188C0.832741 7.59539 0.660612 7.84315 0.569401 8.1241C0.478189 8.40504 0.471955 8.70666 0.55148 8.99113C0.631004 9.27561 0.792748 9.53027 1.01643 9.72318L5.24549 13.4188L3.97799 18.9069C3.91097 19.1941 3.93009 19.4947 4.03297 19.7711C4.13585 20.0475 4.31792 20.2874 4.55642 20.4609C4.79492 20.6344 5.07926 20.7337 5.3739 20.7464C5.66854 20.7592 5.9604 20.6848 6.21299 20.5326L10.9942 17.6263L15.7858 20.5326C16.0384 20.6848 16.3303 20.7592 16.6249 20.7464C16.9195 20.7337 17.2039 20.6344 17.4424 20.4609C17.6809 20.2874 17.8629 20.0475 17.9658 19.7711C18.0687 19.4947 18.0878 19.1941 18.0208 18.9069L16.7542 13.4132L20.9824 9.72318C21.206 9.5296 21.3674 9.27421 21.4463 8.98914C21.5252 8.70406 21.5181 8.40202 21.4258 8.121ZM19.9989 8.58974L15.7708 12.2797C15.565 12.4587 15.4119 12.6905 15.328 12.95C15.2441 13.2095 15.2325 13.487 15.2946 13.7526L16.5649 19.2501L11.7771 16.3438C11.5435 16.2016 11.2752 16.1263 11.0017 16.1263C10.7282 16.1263 10.46 16.2016 10.2264 16.3438L5.44518 19.2501L6.70705 13.7563C6.76907 13.4907 6.7575 13.2132 6.67358 12.9537C6.58966 12.6942 6.43658 12.4625 6.2308 12.2835L2.0008 8.59537C2.00046 8.59257 2.00046 8.58974 2.0008 8.58693L7.5733 8.10506C7.84537 8.08108 8.10572 7.98327 8.32628 7.82219C8.54684 7.6611 8.71923 7.44286 8.82487 7.191L11.0008 2.00756L13.1758 7.191C13.2814 7.44286 13.4538 7.6611 13.6744 7.82219C13.8949 7.98327 14.1553 8.08108 14.4274 8.10506L20.0008 8.58693C20.0008 8.58693 20.0008 8.59256 20.0008 8.59349L19.9989 8.58974Z" fill="#FF9800"/>
</svg>
