<svg width="40" height="40" viewBox="0 0 40 40" fill="none" xmlns="http://www.w3.org/2000/svg">
<path d="M31.667 1.66669H8.33366C7.93429 1.67129 7.54985 1.81915 7.25033 2.08335C8.43889 2.50152 9.48462 3.24795 10.2663 4.23613C11.048 5.22431 11.5337 6.41378 11.667 7.66669C11.6925 7.88818 11.6925 8.11186 11.667 8.33335V36.6667C11.6662 36.9855 11.7569 37.2978 11.9282 37.5666C12.0995 37.8354 12.3444 38.0495 12.6337 38.1834C12.9236 38.3168 13.2459 38.3643 13.562 38.3199C13.8781 38.2756 14.1749 38.1414 14.417 37.9334L19.167 33.8667L23.917 37.9334C24.2189 38.1916 24.6031 38.3335 25.0003 38.3335C25.3976 38.3335 25.7818 38.1916 26.0837 37.9334L30.8337 33.8667L35.5837 37.9334C35.8856 38.1915 36.2698 38.3334 36.667 38.3334C36.9081 38.3316 37.1463 38.2806 37.367 38.1834C37.6563 38.0495 37.9011 37.8354 38.0725 37.5666C38.2438 37.2978 38.3344 36.9855 38.3337 36.6667V8.33335C38.3337 6.56524 37.6313 4.86955 36.381 3.61931C35.1308 2.36907 33.4351 1.66669 31.667 1.66669ZM30.0003 25H20.0003C19.5583 25 19.1344 24.8244 18.8218 24.5119C18.5093 24.1993 18.3337 23.7754 18.3337 23.3334C18.3337 22.8913 18.5093 22.4674 18.8218 22.1548C19.1344 21.8423 19.5583 21.6667 20.0003 21.6667H30.0003C30.4424 21.6667 30.8663 21.8423 31.1788 22.1548C31.4914 22.4674 31.667 22.8913 31.667 23.3334C31.667 23.7754 31.4914 24.1993 31.1788 24.5119C30.8663 24.8244 30.4424 25 30.0003 25ZM30.0003 18.3334H20.0003C19.5583 18.3334 19.1344 18.1578 18.8218 17.8452C18.5093 17.5326 18.3337 17.1087 18.3337 16.6667C18.3337 16.2247 18.5093 15.8007 18.8218 15.4882C19.1344 15.1756 19.5583 15 20.0003 15H30.0003C30.4424 15 30.8663 15.1756 31.1788 15.4882C31.4914 15.8007 31.667 16.2247 31.667 16.6667C31.667 17.1087 31.4914 17.5326 31.1788 17.8452C30.8663 18.1578 30.4424 18.3334 30.0003 18.3334ZM30.0003 11.6667H20.0003C19.5583 11.6667 19.1344 11.4911 18.8218 11.1785C18.5093 10.866 18.3337 10.442 18.3337 10C18.3337 9.55799 18.5093 9.13407 18.8218 8.82151C19.1344 8.50895 19.5583 8.33335 20.0003 8.33335H30.0003C30.4424 8.33335 30.8663 8.50895 31.1788 8.82151C31.4914 9.13407 31.667 9.55799 31.667 10C31.667 10.442 31.4914 10.866 31.1788 11.1785C30.8663 11.4911 30.4424 11.6667 30.0003 11.6667ZM8.33366 8.33335V21.6667H3.33366C2.89163 21.6667 2.46771 21.4911 2.15515 21.1785C1.84259 20.866 1.66699 20.442 1.66699 20V8.33335C1.66699 8.10002 1.66699 7.88335 1.66699 7.66669C1.7554 6.78263 2.19137 5.9699 2.87901 5.4073C3.56664 4.84469 4.4496 4.57828 5.33366 4.66669C6.21771 4.75509 7.03044 5.19107 7.59305 5.8787C8.15566 6.56633 8.42206 7.4493 8.33366 8.33335Z" fill="#ECAD4F"/>
</svg>
