<svg width="16" height="16" viewBox="0 0 16 16" fill="none" xmlns="http://www.w3.org/2000/svg">
<path d="M6 11.7241L6 4.2761C6.00003 4.14427 6.03914 4.0154 6.1124 3.90579C6.18565 3.79619 6.28976 3.71076 6.41156 3.66031C6.53336 3.60987 6.66739 3.59667 6.79669 3.62238C6.92599 3.64809 7.04477 3.71156 7.138 3.80477L10.862 7.52877C10.987 7.65379 11.0572 7.82332 11.0572 8.0001C11.0572 8.17688 10.987 8.34641 10.862 8.47143L7.138 12.1954C7.04477 12.2886 6.92599 12.3521 6.79669 12.3778C6.66739 12.4035 6.53336 12.3903 6.41156 12.3399C6.28976 12.2894 6.18565 12.204 6.1124 12.0944C6.03914 11.9848 6.00003 11.8559 6 11.7241Z" fill="#FF0009"/>
</svg>
