<svg width="40" height="40" viewBox="0 0 40 40" fill="none" xmlns="http://www.w3.org/2000/svg">
<path d="M15.5215 29.1562C16.598 31.6521 18.0989 33.9158 20.0003 35.9067C21.9019 33.9157 23.4027 31.6521 24.4792 29.1562H15.5215Z" fill="#1A1A1A"/>
<path d="M17.0748 3.85663C15.0377 4.22397 13.0848 4.97382 11.3184 6.07788C9.3518 7.3071 7.675 8.93452 6.38867 10.8437H12.9887C13.9699 8.29632 15.3387 5.95632 17.0748 3.85663Z" fill="#1A1A1A"/>
<path d="M22.9258 36.1433C24.9629 35.776 26.9157 35.0261 28.6821 33.922C30.6487 32.6928 32.3255 31.0654 33.6119 29.1562H27.0119C26.0306 31.7036 24.6618 34.0436 22.9258 36.1433Z" fill="#1A1A1A"/>
<path d="M33.6119 10.8437C32.3255 8.93444 30.6487 7.30702 28.6821 6.0778C26.9157 4.97374 24.9629 4.22397 22.9258 3.85663C24.6618 5.95632 26.0306 8.29632 27.0119 10.8437L33.6119 10.8437Z" fill="#1A1A1A"/>
<path d="M24.4793 10.8437C23.4027 8.34781 21.9019 6.08414 20.0004 4.0932C18.0988 6.08422 16.598 8.34781 15.5215 10.8437H24.4793Z" fill="#1A1A1A"/>
<path d="M6.38867 29.1563C7.675 31.0655 9.3518 32.6929 11.3184 33.9221C13.0848 35.0262 15.0377 35.776 17.0748 36.1433C15.3387 34.0436 13.9699 31.7036 12.9887 29.1562H6.38867V29.1563Z" fill="#1A1A1A"/>
<path d="M0 13.1875V26.8125H40V13.1875H0ZM12.2943 23.9616H10.5981L7.47453 18.9904V24.0668H5.67594V15.4464L7.37211 15.4467L10.4957 20.4178V15.4337H12.2943V23.9616ZM18.0191 17.2636H15.1656V18.8509H17.8087V20.6495H15.1656V22.2369H18.0191V24.0355H13.367V20.6495V18.8509V15.4649H18.0191V17.2636ZM26.4941 24.0084L24.7884 24.0201L23.3888 19.1659L21.9881 24.0088L20.2815 24.0205L18.631 15.6766L20.3955 15.3277L21.3016 19.9086L22.5642 15.5431L24.2167 15.5452L25.4757 19.9114L26.3856 15.3395L28.1496 15.6905L26.4941 24.0084ZM34.2891 21.8443C34.0591 23.1321 32.831 24.0668 31.3689 24.0668C30.1855 24.0668 29.0745 23.5898 28.3209 22.7583L29.6537 21.5505C30.0609 21.9998 30.7021 22.2681 31.3689 22.2681C32.0058 22.2681 32.4535 21.8919 32.5184 21.5281C32.6055 21.0403 31.8766 20.731 31.6511 20.6478C30.5898 20.2563 29.6473 19.8368 29.6077 19.8191L29.5426 19.7901L29.4829 19.7512C28.7474 19.2717 28.3684 18.4308 28.4939 17.5567C28.6274 16.6262 29.307 15.8686 30.2675 15.5792C32.1577 15.0098 33.7128 16.2923 33.7781 16.3471L32.6208 17.724L32.6263 17.7285C32.6174 17.7214 31.7344 17.0159 30.7863 17.3014C30.3725 17.4261 30.2904 17.7002 30.2743 17.8123C30.2631 17.8904 30.2573 18.0767 30.4209 18.2119C30.6668 18.3195 31.4417 18.6534 32.2734 18.9602C34.0239 19.606 34.4623 20.8735 34.2891 21.8443Z" fill="#1A1A1A"/>
</svg>
