<svg width="40" height="40" viewBox="0 0 40 40" fill="none" xmlns="http://www.w3.org/2000/svg">
<g clip-path="url(#clip0_503_1018)">
<path d="M37.3405 20.5182C37.1796 20.1889 37.1796 19.8113 37.3405 19.4821L38.8324 16.4301C39.663 14.7308 39.0049 12.7055 37.3341 11.819L34.3334 10.2268C34.0096 10.0551 33.7877 9.74946 33.7243 9.38861L33.1374 6.04261C32.8106 4.17965 31.0874 2.92779 29.215 3.19271L25.8515 3.66848C25.4884 3.71973 25.1294 3.60302 24.8661 3.34825L22.4246 0.986391C21.0652 -0.328758 18.9355 -0.328836 17.5761 0.986391L15.1346 3.34849C14.8711 3.60333 14.5121 3.71981 14.1492 3.66872L10.7857 3.19294C8.91265 2.92786 7.19 4.17989 6.86321 6.04285L6.27634 9.38869C6.21298 9.74962 5.99102 10.0552 5.66736 10.227L2.66659 11.8191C0.99582 12.7055 0.337699 14.7311 1.16832 16.4304L2.66011 19.4822C2.82104 19.8115 2.82104 20.1892 2.66011 20.5184L1.16824 23.5702C0.33762 25.2695 0.995742 27.2949 2.66651 28.1814L5.66728 29.7736C5.99103 29.9453 6.21298 30.2509 6.27634 30.6118L6.86321 33.9578C7.16071 35.6537 8.61492 36.8431 10.2862 36.8429C10.4508 36.8429 10.6179 36.8313 10.7858 36.8076L14.1493 36.3318C14.512 36.2803 14.8712 36.3973 15.1346 36.652L17.5761 39.0139C18.256 39.6716 19.128 40.0003 20.0003 40.0002C20.8724 40.0002 21.745 39.6714 22.4245 39.0139L24.8661 36.652C25.1295 36.3973 25.4886 36.2809 25.8515 36.3318L29.215 36.8076C31.0882 37.0726 32.8106 35.8206 33.1374 33.9577L33.7244 30.6118C33.7877 30.2509 34.0097 29.9454 34.3334 29.7736L37.3341 28.1814C39.0049 27.295 39.663 25.2695 38.8324 23.5702L37.3405 20.5182ZM15.3862 9.61853C17.7184 9.61853 19.6158 11.5159 19.6158 13.8481C19.6158 16.1803 17.7184 18.0777 15.3862 18.0777C13.054 18.0777 11.1566 16.1803 11.1566 13.8481C11.1566 11.5159 13.054 9.61853 15.3862 9.61853ZM13.2031 28.4286C12.9779 28.6538 12.6826 28.7665 12.3875 28.7665C12.0923 28.7665 11.797 28.6539 11.5719 28.4286C11.1214 27.9781 11.1214 27.2477 11.5719 26.7973L26.7975 11.5716C27.2479 11.1212 27.9783 11.1212 28.4288 11.5716C28.8792 12.0221 28.8792 12.7525 28.4288 13.203L13.2031 28.4286ZM24.6143 30.3818C22.2821 30.3818 20.3847 28.4844 20.3847 26.1523C20.3847 23.8201 22.2821 21.9227 24.6143 21.9227C26.9464 21.9227 28.8439 23.8201 28.8439 26.1523C28.8439 28.4844 26.9464 30.3818 24.6143 30.3818Z" fill="#1A1A1A"/>
<path d="M24.614 24.2297C23.5539 24.2297 22.6914 25.0922 22.6914 26.1522C22.6914 27.2123 23.5538 28.0747 24.614 28.0747C25.674 28.0747 26.5365 27.2123 26.5365 26.1522C26.5365 25.0922 25.674 24.2297 24.614 24.2297Z" fill="#1A1A1A"/>
<path d="M15.3864 11.9253C14.3263 11.9253 13.4639 12.7877 13.4639 13.8478C13.4639 14.9079 14.3263 15.7703 15.3864 15.7703C16.4464 15.7703 17.3089 14.9079 17.3089 13.8478C17.3088 12.7878 16.4464 11.9253 15.3864 11.9253Z" fill="#1A1A1A"/>
</g>
<defs>
<clipPath id="clip0_503_1018">
<rect width="40" height="40" fill="white"/>
</clipPath>
</defs>
</svg>
