<svg width="40" height="40" viewBox="0 0 40 40" fill="none" xmlns="http://www.w3.org/2000/svg">
<g clip-path="url(#clip0_796_2429)">
<path d="M20 16.1431C23.7538 16.1431 26.7969 13.1 26.7969 9.34619C26.7969 5.59238 23.7538 2.54932 20 2.54932C16.2462 2.54932 13.2031 5.59238 13.2031 9.34619C13.2031 13.1 16.2462 16.1431 20 16.1431Z" fill="#EC834F"/>
<path d="M33.75 16.143C36.1231 16.143 38.0469 14.2192 38.0469 11.8461C38.0469 9.47303 36.1231 7.54926 33.75 7.54926C31.3769 7.54926 29.4531 9.47303 29.4531 11.8461C29.4531 14.2192 31.3769 16.143 33.75 16.143Z" fill="#EC834F"/>
<path d="M6.25 16.143C8.6231 16.143 10.5469 14.2192 10.5469 11.8461C10.5469 9.47303 8.6231 7.54926 6.25 7.54926C3.8769 7.54926 1.95312 9.47303 1.95312 11.8461C1.95312 14.2192 3.8769 16.143 6.25 16.143Z" fill="#EC834F"/>
<path d="M10.4836 20.0016C8.79219 18.6159 7.26039 18.7993 5.30469 18.7993C2.37969 18.7993 0 21.1649 0 24.072V32.604C0 33.8665 1.03047 34.893 2.29766 34.893C7.76844 34.893 7.10938 34.992 7.10938 34.6571C7.10938 28.6113 6.39328 24.1777 10.4836 20.0016Z" fill="#EC834F"/>
<path d="M21.8604 18.8305C18.4444 18.5455 15.4753 18.8337 12.9143 20.9477C8.62859 24.3805 9.45335 29.0026 9.45335 34.657C9.45335 36.153 10.6705 37.393 12.1893 37.393C28.6801 37.393 29.3364 37.9249 30.3143 35.7594C30.635 35.027 30.5471 35.2598 30.5471 28.2539C30.5471 22.6894 25.7289 18.8305 21.8604 18.8305Z" fill="#EC834F"/>
<path d="M34.6955 18.7992C32.7291 18.7992 31.2057 18.6177 29.5166 20.0016C33.5764 24.1466 32.8908 28.2777 32.8908 34.657C32.8908 34.9941 32.3437 34.893 37.6205 34.893C38.933 34.893 40.0002 33.8297 40.0002 32.5227V24.0719C40.0002 21.1649 37.6205 18.7992 34.6955 18.7992Z" fill="#EC834F"/>
</g>
<defs>
<clipPath id="clip0_796_2429">
<rect width="40" height="40" fill="white"/>
</clipPath>
</defs>
</svg>
