<svg width="16" height="16" viewBox="0 0 16 16" fill="none" xmlns="http://www.w3.org/2000/svg">
<path d="M1.81658 14C1.69436 14 1.58325 13.9693 1.48325 13.908C1.38325 13.8467 1.30547 13.7662 1.24991 13.6667C1.19436 13.5667 1.16369 13.4582 1.15791 13.3413C1.15214 13.2244 1.1828 13.1107 1.24991 13L7.41658 2.33333C7.48325 2.22222 7.56947 2.13889 7.67525 2.08333C7.78102 2.02778 7.88925 2 7.99991 2C8.11102 2 8.21947 2.02778 8.32525 2.08333C8.43103 2.13889 8.51702 2.22222 8.58325 2.33333L14.7499 13C14.8166 13.1111 14.8472 13.2251 14.8419 13.342C14.8366 13.4589 14.8059 13.5671 14.7499 13.6667C14.6944 13.7667 14.6166 13.8473 14.5166 13.9087C14.4166 13.97 14.3055 14.0004 14.1832 14H1.81658ZM7.99991 12C8.1888 12 8.34725 11.936 8.47525 11.808C8.60325 11.68 8.66703 11.5218 8.66658 11.3333C8.66658 11.1444 8.60258 10.986 8.47458 10.858C8.34658 10.73 8.18836 10.6662 7.99991 10.6667C7.81102 10.6667 7.65258 10.7307 7.52458 10.8587C7.39658 10.9867 7.3328 11.1449 7.33325 11.3333C7.33325 11.5222 7.39725 11.6807 7.52525 11.8087C7.65325 11.9367 7.81147 12.0004 7.99991 12ZM7.99991 10C8.1888 10 8.34725 9.936 8.47525 9.808C8.60325 9.68 8.66703 9.52178 8.66658 9.33333V7.33333C8.66658 7.14444 8.60258 6.986 8.47458 6.858C8.34658 6.73 8.18836 6.66622 7.99991 6.66667C7.81102 6.66667 7.65258 6.73067 7.52458 6.85867C7.39658 6.98667 7.3328 7.14489 7.33325 7.33333V9.33333C7.33325 9.52222 7.39725 9.68067 7.52525 9.80867C7.65325 9.93667 7.81147 10.0004 7.99991 10Z" fill="#808080"/>
</svg>
