<svg width="32" height="32" viewBox="0 0 32 32" fill="none" xmlns="http://www.w3.org/2000/svg">
<rect width="32" height="32" rx="16" fill="#1A2954"/>
<path d="M12.6276 11.3333C12.6274 11.6869 12.4868 12.026 12.2366 12.2759C11.9864 12.5258 11.6472 12.6661 11.2936 12.6659C10.94 12.6658 10.6009 12.5251 10.351 12.2749C10.1011 12.0248 9.96076 11.6856 9.96094 11.3319C9.96111 10.9783 10.1018 10.6392 10.3519 10.3893C10.6021 10.1394 10.9413 9.99909 11.2949 9.99927C11.6486 9.99944 11.9876 10.1401 12.2376 10.3903C12.4875 10.6404 12.6278 10.9796 12.6276 11.3333ZM12.6676 13.6533H10.0009V21.9999H12.6676V13.6533ZM16.8809 13.6533H14.2276V21.9999H16.8543V17.6199C16.8543 15.1799 20.0343 14.9533 20.0343 17.6199V21.9999H22.6676V16.7133C22.6676 12.5999 17.9609 12.7533 16.8543 14.7733L16.8809 13.6533Z" fill="white"/>
</svg>
