<svg width="16" height="16" viewBox="0 0 16 16" fill="none" xmlns="http://www.w3.org/2000/svg">
<path d="M9.46732 1.91675C8.64957 1.91675 7.86531 2.2416 7.28707 2.81984C6.70883 3.39807 6.38398 4.18233 6.38398 5.00008V6.71675H4.73398C4.65132 6.71675 4.58398 6.78341 4.58398 6.86675V9.13341C4.58398 9.21608 4.65065 9.28342 4.73398 9.28342H6.38398V13.9334C6.38398 14.0161 6.45065 14.0834 6.53398 14.0834H8.80065C8.88332 14.0834 8.95065 14.0167 8.95065 13.9334V9.28342H10.6153C10.684 9.28342 10.744 9.23675 10.7607 9.17008L11.3273 6.90341C11.3329 6.8813 11.3334 6.8582 11.3287 6.83588C11.324 6.81355 11.3142 6.7926 11.3002 6.7746C11.2862 6.7566 11.2683 6.74203 11.2478 6.73201C11.2273 6.72199 11.2048 6.71677 11.182 6.71675H8.95065V5.00008C8.95065 4.93223 8.96402 4.86505 8.98998 4.80236C9.01595 4.73968 9.054 4.68272 9.10198 4.63474C9.14996 4.58677 9.20691 4.54871 9.2696 4.52274C9.33228 4.49678 9.39947 4.48341 9.46732 4.48341H11.2007C11.2833 4.48341 11.3507 4.41675 11.3507 4.33341V2.06675C11.3507 1.98408 11.284 1.91675 11.2007 1.91675H9.46732Z" fill="white"/>
</svg>
