<svg width="32" height="32" viewBox="0 0 32 32" fill="none" xmlns="http://www.w3.org/2000/svg">
<rect width="32" height="32" rx="16" fill="#1A2954"/>
<path d="M17.4673 9.91675C16.6496 9.91675 15.8653 10.2416 15.2871 10.8198C14.7088 11.3981 14.384 12.1823 14.384 13.0001V14.7167H12.734C12.6513 14.7167 12.584 14.7834 12.584 14.8667V17.1334C12.584 17.2161 12.6507 17.2834 12.734 17.2834H14.384V21.9334C14.384 22.0161 14.4507 22.0834 14.534 22.0834H16.8007C16.8833 22.0834 16.9507 22.0167 16.9507 21.9334V17.2834H18.6153C18.684 17.2834 18.744 17.2367 18.7607 17.1701L19.3273 14.9034C19.3329 14.8813 19.3334 14.8582 19.3287 14.8359C19.324 14.8136 19.3142 14.7926 19.3002 14.7746C19.2862 14.7566 19.2683 14.742 19.2478 14.732C19.2273 14.722 19.2048 14.7168 19.182 14.7167H16.9507V13.0001C16.9507 12.9322 16.964 12.865 16.99 12.8024C17.0159 12.7397 17.054 12.6827 17.102 12.6347C17.15 12.5868 17.2069 12.5487 17.2696 12.5227C17.3323 12.4968 17.3995 12.4834 17.4673 12.4834H19.2007C19.2833 12.4834 19.3507 12.4167 19.3507 12.3334V10.0667C19.3507 9.98408 19.284 9.91675 19.2007 9.91675H17.4673Z" fill="white"/>
</svg>
