<svg width="32" height="32" viewBox="0 0 32 32" fill="none" xmlns="http://www.w3.org/2000/svg">
<rect width="32" height="32" rx="16" fill="#1A2954"/>
<path d="M22.974 12.0001C22.4607 12.2334 21.9073 12.3867 21.334 12.4601C21.9207 12.1067 22.374 11.5467 22.5873 10.8734C22.034 11.2067 21.4207 11.4401 20.774 11.5734C20.2473 11.0001 19.5073 10.6667 18.6673 10.6667C17.1007 10.6667 15.8207 11.9467 15.8207 13.5267C15.8207 13.7534 15.8473 13.9734 15.894 14.1801C13.5207 14.0601 11.4073 12.9201 10.0007 11.1934C9.75401 11.6134 9.61401 12.1067 9.61401 12.6267C9.61401 13.6201 10.114 14.5001 10.8873 15.0001C10.414 15.0001 9.97401 14.8667 9.58734 14.6667V14.6867C9.58734 16.0734 10.574 17.2334 11.8807 17.4934C11.4612 17.6082 11.0207 17.6242 10.594 17.5401C10.7751 18.1084 11.1297 18.6057 11.608 18.962C12.0863 19.3184 12.6643 19.5159 13.2607 19.5267C12.2498 20.327 10.9967 20.7596 9.70734 20.7534C9.48068 20.7534 9.25401 20.7401 9.02734 20.7134C10.294 21.5267 11.8007 22.0001 13.414 22.0001C18.6673 22.0001 21.554 17.6401 21.554 13.8601C21.554 13.7334 21.554 13.6134 21.5473 13.4867C22.1073 13.0867 22.5873 12.5801 22.974 12.0001Z" fill="white"/>
</svg>
