<svg width="32" height="32" viewBox="0 0 32 32" fill="none" xmlns="http://www.w3.org/2000/svg">
<rect width="32" height="32" rx="16" fill="#1A2954"/>
<g clip-path="url(#clip0_788_13706)">
<path d="M23.8927 13.863C23.7564 13.4289 23.4839 13.0502 23.1157 12.783C22.7475 12.5157 22.303 12.3741 21.8481 12.379H18.9354L18.0507 9.62163C17.9116 9.1876 17.6383 8.80897 17.2701 8.54034C16.9019 8.27171 16.4579 8.12695 16.0021 8.12695C15.5463 8.12695 15.1023 8.27171 14.7341 8.54034C14.3659 8.80897 14.0925 9.1876 13.9534 9.62163L13.0687 12.379H10.1561C9.70258 12.3796 9.26088 12.5236 8.89407 12.7902C8.52726 13.0569 8.25411 13.4327 8.11363 13.8639C7.97315 14.2951 7.97253 14.7596 8.11185 15.1912C8.25118 15.6228 8.52332 15.9993 8.88941 16.267L11.2601 18.0003L10.3587 20.7916C10.2131 21.2246 10.2112 21.693 10.3535 22.127C10.4957 22.5611 10.7744 22.9375 11.1481 23.2003C11.5153 23.4715 11.9603 23.6168 12.4169 23.6145C12.8734 23.6122 13.3169 23.4625 13.6814 23.1876L16.0021 21.4796L18.3234 23.1856C18.69 23.4553 19.1326 23.6017 19.5877 23.6039C20.0427 23.6062 20.4867 23.464 20.8559 23.198C21.2251 22.9319 21.5004 22.5557 21.6423 22.1233C21.7841 21.6909 21.7852 21.2247 21.6454 20.7916L20.7441 18.0003L23.1174 16.267C23.4877 16.0027 23.763 15.6262 23.9027 15.1932C24.0423 14.7602 24.0388 14.2938 23.8927 13.863ZM22.3307 15.1903L19.5681 17.2096C19.4546 17.2924 19.3702 17.4089 19.3268 17.5425C19.2835 17.6761 19.2835 17.82 19.3267 17.9536L20.3767 21.2003C20.4299 21.365 20.4294 21.5422 20.3755 21.7066C20.3215 21.871 20.2168 22.0141 20.0764 22.1152C19.936 22.2163 19.7671 22.2704 19.5941 22.2695C19.4211 22.2686 19.2528 22.2129 19.1134 22.1103L16.3967 20.1103C16.2823 20.0262 16.1441 19.9809 16.0021 19.9809C15.8601 19.9809 15.7218 20.0262 15.6074 20.1103L12.8907 22.1103C12.7515 22.2142 12.5827 22.2711 12.4089 22.2727C12.2351 22.2743 12.0654 22.2205 11.9242 22.1191C11.7831 22.0177 11.6779 21.8739 11.6239 21.7088C11.57 21.5436 11.57 21.3655 11.6241 21.2003L12.6774 17.9536C12.7207 17.82 12.7207 17.6761 12.6773 17.5425C12.634 17.4089 12.5496 17.2924 12.4361 17.2096L9.67342 15.1903C9.53428 15.0884 9.4309 14.9452 9.37804 14.7811C9.32518 14.6169 9.32554 14.4403 9.37907 14.2764C9.4326 14.1124 9.53656 13.9696 9.67611 13.8683C9.81565 13.767 9.98364 13.7124 10.1561 13.7123H13.5561C13.6972 13.7123 13.8347 13.6675 13.9488 13.5843C14.0628 13.5012 14.1476 13.384 14.1907 13.2496L15.2241 10.029C15.2771 9.86415 15.3811 9.72042 15.521 9.61846C15.6609 9.5165 15.8296 9.46157 16.0027 9.46157C16.1759 9.46157 16.3446 9.5165 16.4845 9.61846C16.6244 9.72042 16.7284 9.86415 16.7814 10.029L17.8147 13.2496C17.8579 13.384 17.9427 13.5012 18.0567 13.5843C18.1708 13.6675 18.3083 13.7123 18.4494 13.7123H21.8494C22.0219 13.7124 22.1898 13.767 22.3294 13.8683C22.4689 13.9696 22.5729 14.1124 22.6264 14.2764C22.68 14.4403 22.6803 14.6169 22.6275 14.7811C22.5746 14.9452 22.4712 15.0884 22.3321 15.1903H22.3307Z" fill="white"/>
</g>
<defs>
<clipPath id="clip0_788_13706">
<rect width="16" height="16" fill="white" transform="translate(8 8)"/>
</clipPath>
</defs>
</svg>
